<svg xmlns="http://www.w3.org/2000/svg" width="1191" height="25" viewBox="0 0 1191 25"><desc>  Created with Sketch.</desc><defs><filter x="-0.7" y="-35.3" width="101.3" height="194.1" filterUnits="objectBoundingBox"><feOffset dx="0" dy="2" in="SourceAlpha" result="shadowOffsetOuter1"/><feGaussianBlur stdDeviation="2" in="shadowOffsetOuter1" result="shadowBlurOuter1"/><feColorMatrix values="0 0 0 0 0   0 0 0 0 0   0 0 0 0 0  0 0 0 0.5 0" type="matrix" in="shadowBlurOuter1" result="shadowMatrixOuter1"/><feMerge><feMergeNode in="shadowMatrixOuter1"/><feMergeNode in="SourceGraphic"/></feMerge></filter></defs><g fill="none"><g filter="url(#filter-1)" fill="#FFF"><path d="M1.3-538.6L1.3-555.1C1.3-555.9 0.6-556.6-0.3-556.6 -1.2-556.6-1.9-555.9-1.9-555.1L-1.9-538.6C-1.9-537.8-1.2-537.1-0.3-537.1 0.6-537.1 1.3-537.8 1.3-538.6Z"/><path d="M1.3-522.6L1.3-539.1C1.3-539.9 0.6-540.6-0.3-540.6 -1.2-540.6-1.9-539.9-1.9-539.1L-1.9-522.6C-1.9-521.8-1.2-521.1-0.3-521.1 0.6-521.1 1.3-521.8 1.3-522.6Z"/><path d="M1.3-504.6L1.3-521.1C1.3-521.9 0.6-522.6-0.3-522.6 -1.2-522.6-1.9-521.9-1.9-521.1L-1.9-504.6C-1.9-503.8-1.2-503.1-0.3-503.1 0.6-503.1 1.3-503.8 1.3-504.6Z"/><path d="M1.3-488.6L1.3-499.1C1.3-499.9 0.6-500.6-0.3-500.6 -1.2-500.6-1.9-499.9-1.9-499.1 -1.9-496.6-1.9-494.7-1.9-493.5 -1.9-491.1-1.9-487.5-1.9-482.6 -1.9-481.8-1.2-481.1-0.3-481.1 0.6-481.1 1.3-487.8 1.3-488.6Z"/><path d="M1.3-486.6L1.3-503.1C1.3-503.9 0.6-504.6-0.3-504.6 -1.2-504.6-1.9-503.9-1.9-503.1L-1.9-486.6C-1.9-485.8-1.2-485.1-0.3-485.1 0.6-485.1 1.3-485.8 1.3-486.6Z"/><path d="M1.3-472.6L1.3-489.1C1.3-489.9 0.6-490.6-0.3-490.6 -1.2-490.6-1.9-489.9-1.9-489.1L-1.9-472.6C-1.9-471.8-1.2-471.1-0.3-471.1 0.6-471.1 1.3-471.8 1.3-472.6Z"/><path d="M1.3-462.6L1.3-479.1C1.3-479.9 0.6-480.6-0.3-480.6 -1.2-480.6-1.9-479.9-1.9-479.1L-1.9-462.6C-1.9-461.8-1.2-461.1-0.3-461.1 0.6-461.1 1.3-461.8 1.3-462.6Z"/><path d="M1.3-452.6L1.3-469.1C1.3-469.9 0.6-470.6-0.3-470.6 -1.2-470.6-1.9-469.9-1.9-469.1L-1.9-452.6C-1.9-451.8-1.2-451.1-0.3-451.1 0.6-451.1 1.3-451.8 1.3-452.6Z"/><path d="M1.3-442.6L1.3-459.1C1.3-459.9 0.6-460.6-0.3-460.6 -1.2-460.6-1.9-459.9-1.9-459.1L-1.9-442.6C-1.9-441.8-1.2-441.1-0.3-441.1 0.6-441.1 1.3-441.8 1.3-442.6Z"/><path d="M1.3-432.6L1.3-449.1C1.3-449.9 0.6-450.6-0.3-450.6 -1.2-450.6-1.9-449.9-1.9-449.1L-1.9-432.6C-1.9-431.8-1.2-431.1-0.3-431.1 0.6-431.1 1.3-431.8 1.3-432.6Z"/><path d="M1.3-422.6L1.3-439.1C1.3-439.9 0.6-440.6-0.3-440.6 -1.2-440.6-1.9-439.9-1.9-439.1L-1.9-422.6C-1.9-421.8-1.2-421.1-0.3-421.1 0.6-421.1 1.3-421.8 1.3-422.6Z"/><path d="M1.3-412.6L1.3-429.1C1.3-429.9 0.6-430.6-0.3-430.6 -1.2-430.6-1.9-429.9-1.9-429.1L-1.9-412.6C-1.9-411.8-1.2-411.1-0.3-411.1 0.6-411.1 1.3-411.8 1.3-412.6Z"/><path d="M1.3-402.6L1.3-419.1C1.3-419.9 0.6-420.6-0.3-420.6 -1.2-420.6-1.9-419.9-1.9-419.1L-1.9-402.6C-1.9-401.8-1.2-401.1-0.3-401.1 0.6-401.1 1.3-401.8 1.3-402.6Z"/><path d="M1.3-392.6L1.3-409.1C1.3-409.9 0.6-410.6-0.3-410.6 -1.2-410.6-1.9-409.9-1.9-409.1L-1.9-392.6C-1.9-391.8-1.2-391.1-0.3-391.1 0.6-391.1 1.3-391.8 1.3-392.6Z"/><path d="M1.3-372.6L1.3-389.1C1.3-389.9 0.6-390.6-0.3-390.6 -1.2-390.6-1.9-389.9-1.9-389.1L-1.9-372.6C-1.9-371.8-1.2-371.1-0.3-371.1 0.6-371.1 1.3-371.8 1.3-372.6Z"/><path d="M1.3-382.6L1.3-399.1C1.3-399.9 0.6-400.6-0.3-400.6 -1.2-400.6-1.9-399.9-1.9-399.1L-1.9-382.6C-1.9-381.8-1.2-381.1-0.3-381.1 0.6-381.1 1.3-381.8 1.3-382.6Z"/><path d="M1.3-362.6L1.3-379.1C1.3-379.9 0.6-380.6-0.3-380.6 -1.2-380.6-1.9-379.9-1.9-379.1L-1.9-362.6C-1.9-361.8-1.2-361.1-0.3-361.1 0.6-361.1 1.3-361.8 1.3-362.6Z"/><path d="M1.3-352.6L1.3-369.1C1.3-369.9 0.6-370.6-0.3-370.6 -1.2-370.6-1.9-369.9-1.9-369.1L-1.9-352.6C-1.9-351.8-1.2-351.1-0.3-351.1 0.6-351.1 1.3-351.8 1.3-352.6Z"/><path d="M1.3-335.6L1.3-352.1C1.3-352.9 0.6-353.6-0.3-353.6 -1.2-353.6-1.9-352.9-1.9-352.1L-1.9-335.6C-1.9-334.8-1.2-334.1-0.3-334.1 0.6-334.1 1.3-334.8 1.3-335.6Z"/><path d="M1.3-317.6L1.3-334.1C1.3-334.9 0.6-335.6-0.3-335.6 -1.2-335.6-1.9-334.9-1.9-334.1L-1.9-317.6C-1.9-316.8-1.2-316.1-0.3-316.1 0.6-316.1 1.3-316.8 1.3-317.6Z"/><path d="M1.3-305.6L1.3-322.1C1.3-322.9 0.6-323.6-0.3-323.6 -1.2-323.6-1.9-322.9-1.9-322.1L-1.9-305.6C-1.9-304.8-1.2-304.1-0.3-304.1 0.6-304.1 1.3-304.8 1.3-305.6Z"/><path d="M1.3-295.6L1.3-312.1C1.3-312.9 0.6-313.6-0.3-313.6 -1.2-313.6-1.9-312.9-1.9-312.1L-1.9-295.6C-1.9-294.8-1.2-294.1-0.3-294.1 0.6-294.1 1.3-294.8 1.3-295.6Z"/><path d="M1.3-285.6L1.3-302.1C1.3-302.9 0.6-303.6-0.3-303.6 -1.2-303.6-1.9-302.9-1.9-302.1L-1.9-285.6C-1.9-284.8-1.2-284.1-0.3-284.1 0.6-284.1 1.3-284.8 1.3-285.6Z"/><path d="M1.3-275.6L1.3-292.1C1.3-292.9 0.6-293.6-0.3-293.6 -1.2-293.6-1.9-292.9-1.9-292.1L-1.9-275.6C-1.9-274.8-1.2-274.1-0.3-274.1 0.6-274.1 1.3-274.8 1.3-275.6Z"/><path d="M1.3-265.6L1.3-282.1C1.3-282.9 0.6-283.6-0.3-283.6 -1.2-283.6-1.9-282.9-1.9-282.1L-1.9-265.6C-1.9-264.8-1.2-264.1-0.3-264.1 0.6-264.1 1.3-264.8 1.3-265.6Z"/><path d="M1.3-255.6L1.3-272.1C1.3-272.9 0.6-273.6-0.3-273.6 -1.2-273.6-1.9-272.9-1.9-272.1L-1.9-255.6C-1.9-254.8-1.2-254.1-0.3-254.1 0.6-254.1 1.3-254.8 1.3-255.6Z"/><path d="M1.3-245.6L1.3-262.1C1.3-262.9 0.6-263.6-0.3-263.6 -1.2-263.6-1.9-262.9-1.9-262.1L-1.9-245.6C-1.9-244.8-1.2-244.1-0.3-244.1 0.6-244.1 1.3-244.8 1.3-245.6Z"/><path d="M1.3-235.6L1.3-252.1C1.3-252.9 0.6-253.6-0.3-253.6 -1.2-253.6-1.9-252.9-1.9-252.1L-1.9-235.6C-1.9-234.8-1.2-234.1-0.3-234.1 0.6-234.1 1.3-234.8 1.3-235.6Z"/><path d="M1.3-225.6L1.3-242.1C1.3-242.9 0.6-243.6-0.3-243.6 -1.2-243.6-1.9-242.9-1.9-242.1L-1.9-225.6C-1.9-224.8-1.2-224.1-0.3-224.1 0.6-224.1 1.3-224.8 1.3-225.6Z"/><path d="M1.3-215.6L1.3-232.1C1.3-232.9 0.6-233.6-0.3-233.6 -1.2-233.6-1.9-232.9-1.9-232.1L-1.9-215.6C-1.9-214.8-1.2-214.1-0.3-214.1 0.6-214.1 1.3-214.8 1.3-215.6Z"/><path d="M1.3-205.6L1.3-222.1C1.3-222.9 0.6-223.6-0.3-223.6 -1.2-223.6-1.9-222.9-1.9-222.1L-1.9-205.6C-1.9-204.8-1.2-204.1-0.3-204.1 0.6-204.1 1.3-204.8 1.3-205.6Z"/><path d="M1.3-195.6L1.3-212.1C1.3-212.9 0.6-213.6-0.3-213.6 -1.2-213.6-1.9-212.9-1.9-212.1L-1.9-195.6C-1.9-194.8-1.2-194.1-0.3-194.1 0.6-194.1 1.3-194.8 1.3-195.6Z"/><path d="M1.3-171.6L1.3-188.1C1.3-188.9 0.6-189.6-0.3-189.6 -1.2-189.6-1.9-188.9-1.9-188.1L-1.9-171.6C-1.9-170.8-1.2-170.1-0.3-170.1 0.6-170.1 1.3-170.8 1.3-171.6Z"/><path d="M1.3-140.6L1.3-157.1C1.3-157.9 0.6-158.6-0.3-158.6 -1.2-158.6-1.9-157.9-1.9-157.1L-1.9-140.6C-1.9-139.8-1.2-139.1-0.3-139.1 0.6-139.1 1.3-139.8 1.3-140.6Z"/><path d="M1.3-131.6L1.3-148.1C1.3-148.9 0.6-149.6-0.3-149.6 -1.2-149.6-1.9-148.9-1.9-148.1L-1.9-131.6C-1.9-130.8-1.2-130.1-0.3-130.1 0.6-130.1 1.3-130.8 1.3-131.6Z"/><path d="M1.3-121.6L1.3-138.1C1.3-138.9 0.6-139.6-0.3-139.6 -1.2-139.6-1.9-138.9-1.9-138.1L-1.9-121.6C-1.9-120.8-1.2-120.1-0.3-120.1 0.6-120.1 1.3-120.8 1.3-121.6Z"/><path d="M1.3-111.6L1.3-128.1C1.3-128.9 0.6-129.6-0.3-129.6 -1.2-129.6-1.9-128.9-1.9-128.1L-1.9-111.6C-1.9-110.8-1.2-110.1-0.3-110.1 0.6-110.1 1.3-110.8 1.3-111.6Z"/><path d="M1.3-101.6L1.3-118.1C1.3-118.9 0.6-119.6-0.3-119.6 -1.2-119.6-1.9-118.9-1.9-118.1L-1.9-101.6C-1.9-100.8-1.2-100.1-0.3-100.1 0.6-100.1 1.3-100.8 1.3-101.6Z"/><path d="M1.3-91.6L1.3-108.1C1.3-108.9 0.6-109.6-0.3-109.6 -1.2-109.6-1.9-108.9-1.9-108.1L-1.9-91.6C-1.9-90.8-1.2-90.1-0.3-90.1 0.6-90.1 1.3-90.8 1.3-91.6Z"/><path d="M1.3-73.6L1.3-90.1C1.3-90.9 0.6-91.6-0.3-91.6 -1.2-91.6-1.9-90.9-1.9-90.1L-1.9-73.6C-1.9-72.8-1.2-72.1-0.3-72.1 0.6-72.1 1.3-72.8 1.3-73.6Z"/><path d="M1.3-63.6L1.3-80.1C1.3-80.9 0.6-81.6-0.3-81.6 -1.2-81.6-1.9-80.9-1.9-80.1L-1.9-63.6C-1.9-62.8-1.2-62.1-0.3-62.1 0.6-62.1 1.3-62.8 1.3-63.6Z"/><path d="M1.3-53.6L1.3-70.1C1.3-70.9 0.6-71.6-0.3-71.6 -1.2-71.6-1.9-70.9-1.9-70.1L-1.9-53.6C-1.9-52.8-1.2-52.1-0.3-52.1 0.6-52.1 1.3-52.8 1.3-53.6Z"/><path d="M1.3-35.6L1.3-52.1C1.3-52.9 0.6-53.6-0.3-53.6 -1.2-53.6-1.9-52.9-1.9-52.1L-1.9-35.6C-1.9-34.8-1.2-34.1-0.3-34.1 0.6-34.1 1.3-34.8 1.3-35.6Z"/><path d="M1.3-25.6L1.3-42.1C1.3-42.9 0.6-43.6-0.3-43.6 -1.2-43.6-1.9-42.9-1.9-42.1L-1.9-25.6C-1.9-24.8-1.2-24.1-0.3-24.1 0.6-24.1 1.3-24.8 1.3-25.6Z"/><path d="M1.3-15.6L1.3-32.1C1.3-32.9 0.6-33.6-0.3-33.6 -1.2-33.6-1.9-32.9-1.9-32.1L-1.9-15.6C-1.9-14.8-1.2-14.1-0.3-14.1 0.6-14.1 1.3-14.8 1.3-15.6Z"/><path d="M1.3-25.6L1.3-42.1C1.3-42.9 0.6-43.6-0.3-43.6 -1.2-43.6-1.9-42.9-1.9-42.1L-1.9-25.6C-1.9-24.8-1.2-24.1-0.3-24.1 0.6-24.1 1.3-24.8 1.3-25.6Z"/><path d="M1.3-5.6L1.3-22.1C1.3-22.9 0.6-23.6-0.3-23.6 -1.2-23.6-1.9-22.9-1.9-22.1L-1.9-5.6C-1.9-4.8-1.2-4.1-0.3-4.1 0.6-4.1 1.3-4.8 1.3-5.6Z"/><path d="M1.3 4.4L1.3-12.1C1.3-12.9 0.6-13.6-0.3-13.6 -1.2-13.6-1.9-12.9-1.9-12.1L-1.9 4.4C-1.9 5.2-1.2 5.9-0.3 5.9 0.6 5.9 1.3 5.2 1.3 4.4Z"/><path d="M1.3 14.4L1.3-2.1C1.3-2.9 0.6-3.6-0.3-3.6 -1.2-3.6-1.9-2.9-1.9-2.1L-1.9 14.4C-1.9 15.2-1.2 15.9-0.3 15.9 0.6 15.9 1.3 15.2 1.3 14.4Z"/><path d="M1.3 24.4L1.3 7.9C1.3 7.1 0.6 6.4-0.3 6.4 -1.2 6.4-1.9 7.1-1.9 7.9L-1.9 24.4C-1.9 25.2-1.2 25.9-0.3 25.9 0.6 25.9 1.3 25.2 1.3 24.4Z"/><path d="M1.3 34.4L1.3 17.9C1.3 17.1 0.6 16.4-0.3 16.4 -1.2 16.4-1.9 17.1-1.9 17.9L-1.9 34.4C-1.9 35.2-1.2 35.9-0.3 35.9 0.6 35.9 1.3 35.2 1.3 34.4Z"/><path d="M1.3 44.4L1.3 27.9C1.3 27.1 0.6 26.4-0.3 26.4 -1.2 26.4-1.9 27.1-1.9 27.9L-1.9 44.4C-1.9 45.2-1.2 45.9-0.3 45.9 0.6 45.9 1.3 45.2 1.3 44.4Z"/><path d="M1.3 54.4L1.3 37.9C1.3 37.1 0.6 36.4-0.3 36.4 -1.2 36.4-1.9 37.1-1.9 37.9L-1.9 54.4C-1.9 55.2-1.2 55.9-0.3 55.9 0.6 55.9 1.3 55.2 1.3 54.4Z"/><path d="M1.3 64.4L1.3 47.9C1.3 47.1 0.6 46.4-0.3 46.4 -1.2 46.4-1.9 47.1-1.9 47.9L-1.9 64.4C-1.9 65.2-1.2 65.9-0.3 65.9 0.6 65.9 1.3 65.2 1.3 64.4Z"/><path d="M1.3 74.4L1.3 57.9C1.3 57.1 0.6 56.4-0.3 56.4 -1.2 56.4-1.9 57.1-1.9 57.9L-1.9 74.4C-1.9 75.2-1.2 75.9-0.3 75.9 0.6 75.9 1.3 75.2 1.3 74.4Z"/><path d="M1.3 84.4L1.3 67.9C1.3 67.1 0.6 66.4-0.3 66.4 -1.2 66.4-1.9 67.1-1.9 67.9L-1.9 84.4C-1.9 85.2-1.2 85.9-0.3 85.9 0.6 85.9 1.3 85.2 1.3 84.4Z"/><path d="M1.3 94.4L1.3 77.9C1.3 77.1 0.6 76.4-0.3 76.4 -1.2 76.4-1.9 77.1-1.9 77.9L-1.9 94.4C-1.9 95.2-1.2 95.9-0.3 95.9 0.6 95.9 1.3 95.2 1.3 94.4Z"/><path d="M1.3 104.4L1.3 87.9C1.3 87.1 0.6 86.4-0.3 86.4 -1.2 86.4-1.9 87.1-1.9 87.9L-1.9 104.4C-1.9 105.2-1.2 105.9-0.3 105.9 0.6 105.9 1.3 105.2 1.3 104.4Z"/><path d="M1.3 114.4L1.3 97.9C1.3 97.1 0.6 96.4-0.3 96.4 -1.2 96.4-1.9 97.1-1.9 97.9L-1.9 114.4C-1.9 115.2-1.2 115.9-0.3 115.9 0.6 115.9 1.3 115.2 1.3 114.4Z"/><path d="M1.3 124.4L1.3 107.9C1.3 107.1 0.6 106.4-0.3 106.4 -1.2 106.4-1.9 107.1-1.9 107.9L-1.9 124.4C-1.9 125.2-1.2 125.9-0.3 125.9 0.6 125.9 1.3 125.2 1.3 124.4Z"/><path d="M1.3 134.4L1.3 117.9C1.3 117.1 0.6 116.4-0.3 116.4 -1.2 116.4-1.9 117.1-1.9 117.9L-1.9 134.4C-1.9 135.2-1.2 135.9-0.3 135.9 0.6 135.9 1.3 135.2 1.3 134.4Z"/><path d="M1.3 144.4L1.3 127.9C1.3 127.1 0.6 126.4-0.3 126.4 -1.2 126.4-1.9 127.1-1.9 127.9L-1.9 144.4C-1.9 145.2-1.2 145.9-0.3 145.9 0.6 145.9 1.3 145.2 1.3 144.4Z"/><path d="M1.3 154.4L1.3 137.9C1.3 137.1 0.6 136.4-0.3 136.4 -1.2 136.4-1.9 137.1-1.9 137.9L-1.9 154.4C-1.9 155.2-1.2 155.9-0.3 155.9 0.6 155.9 1.3 155.2 1.3 154.4Z"/><path d="M1.3 164.4L1.3 147.9C1.3 147.1 0.6 146.4-0.3 146.4 -1.2 146.4-1.9 147.1-1.9 147.9L-1.9 164.4C-1.9 165.2-1.2 165.9-0.3 165.9 0.6 165.9 1.3 165.2 1.3 164.4Z"/><path d="M1.3 174.4L1.3 157.9C1.3 157.1 0.6 156.4-0.3 156.4 -1.2 156.4-1.9 157.1-1.9 157.9L-1.9 174.4C-1.9 175.2-1.2 175.9-0.3 175.9 0.6 175.9 1.3 175.2 1.3 174.4Z"/><path d="M1.3 184.4L1.3 167.9C1.3 167.1 0.6 166.4-0.3 166.4 -1.2 166.4-1.9 167.1-1.9 167.9L-1.9 184.4C-1.9 185.2-1.2 185.9-0.3 185.9 0.6 185.9 1.3 185.2 1.3 184.4Z"/><path d="M1.3 194.4L1.3 177.9C1.3 177.1 0.6 176.4-0.3 176.4 -1.2 176.4-1.9 177.1-1.9 177.9L-1.9 194.4C-1.9 195.2-1.2 195.9-0.3 195.9 0.6 195.9 1.3 195.2 1.3 194.4Z"/><path d="M1.3 204.4L1.3 187.9C1.3 187.1 0.6 186.4-0.3 186.4 -1.2 186.4-1.9 187.1-1.9 187.9L-1.9 204.4C-1.9 205.2-1.2 205.9-0.3 205.9 0.6 205.9 1.3 205.2 1.3 204.4Z"/><path d="M1.3 214.4L1.3 197.9C1.3 197.1 0.6 196.4-0.3 196.4 -1.2 196.4-1.9 197.1-1.9 197.9L-1.9 214.4C-1.9 215.2-1.2 215.9-0.3 215.9 0.6 215.9 1.3 215.2 1.3 214.4Z"/><path d="M1.8 228L1.8 211.5C1.8 210.7 1 210 0.1 210 -0.8 210-1.5 210.7-1.5 211.5L-1.5 228C-1.5 228.8-0.8 229.5 0.1 229.5 1 229.5 1.8 228.8 1.8 228Z"/><path d="M1.8 248L1.8 231.5C1.8 230.7 1 230 0.1 230 -0.8 230-1.5 230.7-1.5 231.5L-1.5 248C-1.5 248.8-0.8 249.5 0.1 249.5 1 249.5 1.8 248.8 1.8 248Z"/><path d="M1.8 238L1.8 221.5C1.8 220.7 1 220 0.1 220 -0.8 220-1.5 220.7-1.5 221.5L-1.5 238C-1.5 238.8-0.8 239.5 0.1 239.5 1 239.5 1.8 238.8 1.8 238Z"/><path d="M1.8 258L1.8 241.5C1.8 240.7 1 240 0.1 240 -0.8 240-1.5 240.7-1.5 241.5L-1.5 258C-1.5 258.8-0.8 259.5 0.1 259.5 1 259.5 1.8 258.8 1.8 258Z"/><path d="M1.8 228L1.8 211.5C1.8 210.7 1 210 0.1 210 -0.8 210-1.5 210.7-1.5 211.5L-1.5 228C-1.5 228.8-0.8 229.5 0.1 229.5 1 229.5 1.8 228.8 1.8 228Z"/><path d="M1.8 268L1.8 251.5C1.8 250.7 1 250 0.1 250 -0.8 250-1.5 250.7-1.5 251.5L-1.5 268C-1.5 268.8-0.8 269.5 0.1 269.5 1 269.5 1.8 268.8 1.8 268Z"/><path d="M1.8 278L1.8 261.5C1.8 260.7 1 260 0.1 260 -0.8 260-1.5 260.7-1.5 261.5L-1.5 278C-1.5 278.8-0.8 279.5 0.1 279.5 1 279.5 1.8 278.8 1.8 278Z"/><path d="M1.8 288L1.8 271.5C1.8 270.7 1 270 0.1 270 -0.8 270-1.5 270.7-1.5 271.5L-1.5 288C-1.5 288.8-0.8 289.5 0.1 289.5 1 289.5 1.8 288.8 1.8 288Z"/><path d="M1.8 298L1.8 281.5C1.8 280.7 1 280 0.1 280 -0.8 280-1.5 280.7-1.5 281.5L-1.5 298C-1.5 298.8-0.8 299.5 0.1 299.5 1 299.5 1.8 298.8 1.8 298Z"/><path d="M1.8 316L1.8 299.5C1.8 298.7 1 298 0.1 298 -0.8 298-1.5 298.7-1.5 299.5L-1.5 316C-1.5 316.8-0.8 317.5 0.1 317.5 1 317.5 1.8 316.8 1.8 316Z"/><path d="M1.8 330L1.8 313.5C1.8 312.7 1 312 0.1 312 -0.8 312-1.5 312.7-1.5 313.5L-1.5 330C-1.5 330.8-0.8 331.5 0.1 331.5 1 331.5 1.8 330.8 1.8 330Z"/><path d="M1.8 340L1.8 323.5C1.8 322.7 1 322 0.1 322 -0.8 322-1.5 322.7-1.5 323.5L-1.5 340C-1.5 340.8-0.8 341.5 0.1 341.5 1 341.5 1.8 340.8 1.8 340Z"/><path d="M1.8 350L1.8 333.5C1.8 332.7 1 332 0.1 332 -0.8 332-1.5 332.7-1.5 333.5L-1.5 350C-1.5 350.8-0.8 351.5 0.1 351.5 1 351.5 1.8 350.8 1.8 350Z"/><path d="M1.8 360L1.8 343.5C1.8 342.7 1 342 0.1 342 -0.8 342-1.5 342.7-1.5 343.5L-1.5 360C-1.5 360.8-0.8 361.5 0.1 361.5 1 361.5 1.8 360.8 1.8 360Z"/><path d="M1.8 370L1.8 353.5C1.8 352.7 1 352 0.1 352 -0.8 352-1.5 352.7-1.5 353.5L-1.5 370C-1.5 370.8-0.8 371.5 0.1 371.5 1 371.5 1.8 370.8 1.8 370Z"/><path d="M1.8 380L1.8 363.5C1.8 362.7 1 362 0.1 362 -0.8 362-1.5 362.7-1.5 363.5L-1.5 380C-1.5 380.8-0.8 381.5 0.1 381.5 1 381.5 1.8 380.8 1.8 380Z"/><path d="M1.8 390L1.8 373.5C1.8 372.7 1 372 0.1 372 -0.8 372-1.5 372.7-1.5 373.5L-1.5 390C-1.5 390.8-0.8 391.5 0.1 391.5 1 391.5 1.8 390.8 1.8 390Z"/><path d="M1.8 400L1.8 383.5C1.8 382.7 1 382 0.1 382 -0.8 382-1.5 382.7-1.5 383.5L-1.5 400C-1.5 400.8-0.8 401.5 0.1 401.5 1 401.5 1.8 400.8 1.8 400Z"/><path d="M1.8 410L1.8 393.5C1.8 392.7 1 392 0.1 392 -0.8 392-1.5 392.7-1.5 393.5L-1.5 410C-1.5 410.8-0.8 411.5 0.1 411.5 1 411.5 1.8 410.8 1.8 410Z"/><path d="M1.8 420L1.8 403.5C1.8 402.7 1 402 0.1 402 -0.8 402-1.5 402.7-1.5 403.5L-1.5 420C-1.5 420.8-0.8 421.5 0.1 421.5 1 421.5 1.8 420.8 1.8 420Z"/><path d="M1.8 430L1.8 413.5C1.8 412.7 1 412 0.1 412 -0.8 412-1.5 412.7-1.5 413.5L-1.5 430C-1.5 430.8-0.8 431.5 0.1 431.5 1 431.5 1.8 430.8 1.8 430Z"/><path d="M1.8 440L1.8 423.5C1.8 422.7 1 422 0.1 422 -0.8 422-1.5 422.7-1.5 423.5L-1.5 440C-1.5 440.8-0.8 441.5 0.1 441.5 1 441.5 1.8 440.8 1.8 440Z"/><path d="M1.8 450L1.8 433.5C1.8 432.7 1 432 0.1 432 -0.8 432-1.5 432.7-1.5 433.5L-1.5 450C-1.5 450.8-0.8 451.5 0.1 451.5 1 451.5 1.8 450.8 1.8 450Z"/><path d="M1.8 460L1.8 443.5C1.8 442.7 1 442 0.1 442 -0.8 442-1.5 442.7-1.5 443.5L-1.5 460C-1.5 460.8-0.8 461.5 0.1 461.5 1 461.5 1.8 460.8 1.8 460Z"/><path d="M1.8 470L1.8 453.5C1.8 452.7 1 452 0.1 452 -0.8 452-1.5 452.7-1.5 453.5L-1.5 470C-1.5 470.8-0.8 471.5 0.1 471.5 1 471.5 1.8 470.8 1.8 470Z"/><path d="M1.8 480L1.8 463.5C1.8 462.7 1 462 0.1 462 -0.8 462-1.5 462.7-1.5 463.5L-1.5 480C-1.5 480.8-0.8 481.5 0.1 481.5 1 481.5 1.8 480.8 1.8 480Z"/><path d="M1.8 490L1.8 473.5C1.8 472.7 1 472 0.1 472 -0.8 472-1.5 472.7-1.5 473.5L-1.5 490C-1.5 490.8-0.8 491.5 0.1 491.5 1 491.5 1.8 490.8 1.8 490Z"/><path d="M1.8 500L1.8 483.5C1.8 482.7 1 482 0.1 482 -0.8 482-1.5 482.7-1.5 483.5L-1.5 500C-1.5 500.8-0.8 501.5 0.1 501.5 1 501.5 1.8 500.8 1.8 500Z"/><path d="M1.8 510L1.8 493.5C1.8 492.7 1 492 0.1 492 -0.8 492-1.5 492.7-1.5 493.5L-1.5 510C-1.5 510.8-0.8 511.5 0.1 511.5 1 511.5 1.8 510.8 1.8 510Z"/><path d="M1.8 520L1.8 503.5C1.8 502.7 1 502 0.1 502 -0.8 502-1.5 502.7-1.5 503.5L-1.5 520C-1.5 520.8-0.8 521.5 0.1 521.5 1 521.5 1.8 520.8 1.8 520Z"/><path d="M1.8 530L1.8 513.5C1.8 512.7 1 512 0.1 512 -0.8 512-1.5 512.7-1.5 513.5L-1.5 530C-1.5 530.8-0.8 531.5 0.1 531.5 1 531.5 1.8 530.8 1.8 530Z"/><path d="M1.8 540L1.8 523.5C1.8 522.7 1 522 0.1 522 -0.8 522-1.5 522.7-1.5 523.5L-1.5 540C-1.5 540.8-0.8 541.5 0.1 541.5 1 541.5 1.8 540.8 1.8 540Z"/><path d="M1.8 550L1.8 533.5C1.8 532.7 1 532 0.1 532 -0.8 532-1.5 532.7-1.5 533.5L-1.5 550C-1.5 550.8-0.8 551.5 0.1 551.5 1 551.5 1.8 550.8 1.8 550Z"/><path d="M1.8 560L1.8 543.5C1.8 542.7 1 542 0.1 542 -0.8 542-1.5 542.7-1.5 543.5L-1.5 560C-1.5 560.8-0.8 561.5 0.1 561.5 1 561.5 1.8 560.8 1.8 560Z"/><path d="M1.8 570L1.8 553.5C1.8 552.7 1 552 0.1 552 -0.8 552-1.5 552.7-1.5 553.5L-1.5 570C-1.5 570.8-0.8 571.5 0.1 571.5 1 571.5 1.8 570.8 1.8 570Z"/><path d="M1.8 580L1.8 563.5C1.8 562.7 1 562 0.1 562 -0.8 562-1.5 562.7-1.5 563.5L-1.5 580C-1.5 580.8-0.8 581.5 0.1 581.5 1 581.5 1.8 580.8 1.8 580Z"/><path d="M1.8 590L1.8 573.5C1.8 572.7 1 572 0.1 572 -0.8 572-1.5 572.7-1.5 573.5L-1.5 590C-1.5 590.8-0.8 591.5 0.1 591.5 1 591.5 1.8 590.8 1.8 590Z"/><path d="M1.8 370L1.8 353.5C1.8 352.7 1 352 0.1 352 -0.8 352-1.5 352.7-1.5 353.5L-1.5 370C-1.5 370.8-0.8 371.5 0.1 371.5 1 371.5 1.8 370.8 1.8 370Z"/><path d="M1.3-185.6L1.3-202.1C1.3-202.9 0.6-203.6-0.3-203.6 -1.2-203.6-1.9-202.9-1.9-202.1L-1.9-185.6C-1.9-184.8-1.2-184.1-0.3-184.1 0.6-184.1 1.3-184.8 1.3-185.6Z"/><path d="M1.3-155.6L1.3-172.1C1.3-172.9 0.6-173.6-0.3-173.6 -1.2-173.6-1.9-172.9-1.9-172.1L-1.9-155.6C-1.9-154.8-1.2-154.1-0.3-154.1 0.6-154.1 1.3-154.8 1.3-155.6Z"/><path d="M1.3-185.6L1.3-202.1C1.3-202.9 0.6-203.6-0.3-203.6 -1.2-203.6-1.9-202.9-1.9-202.1L-1.9-185.6C-1.9-184.8-1.2-184.1-0.3-184.1 0.6-184.1 1.3-184.8 1.3-185.6Z"/><path d="M4.6-588.1L4.6-567.1C4.6-565.4 3.1-564.1 1.3-564.1L-1.9-564.1C-3.8-564.1-5.2-565.4-5.2-567.1L-5.2-588.1 4.6-588.1ZM1.3-561.1C5-561.1 7.9-563.8 7.9-567.1L7.9-589.6C7.9-590.4 7.2-591.1 6.3-591.1L-6.9-591.1C-7.8-591.1-8.5-590.4-8.5-589.6L-8.5-567.1C-8.5-563.8-5.6-561.1-1.9-561.1L1.3-561.1Z"/><path d="M1.3-564.1L-1.9-564.1C-2.3-564.1-2.6-564.2-3-564.3 -4.1-564.6-5.2-563.9-5.2-562.9L-5.2-557.4C-5.2-555.3-3.4-553.6-1.1-553.6L0.5-553.6C2.8-553.6 4.6-555.3 4.6-557.4L4.6-562.9C4.6-563.9 3.5-564.6 2.4-564.3 2-564.2 1.7-564.1 1.3-564.1ZM1.3-561.1L1.3-557.4C1.3-556.9 1-556.6 0.5-556.6L-1.1-556.6C-1.6-556.6-1.9-556.9-1.9-557.4L-1.9-561.1 1.3-561.1Z"/></g></g></svg>