
<svg width="1191px" height="25px" viewBox="0 0 1191 25" version="1.1" xmlns="http://www.w3.org/2000/svg" xmlns:xlink="http://www.w3.org/1999/xlink">
    <!-- Generator: Sketch 45.1 (43504) - http://www.bohemiancoding.com/sketch -->
    <desc>Created with Sketch.</desc>
    <defs>
        <filter x="-0.7%" y="-35.3%" width="101.3%" height="194.1%" filterUnits="objectBoundingBox" id="filter-1">
            <feOffset dx="0" dy="2" in="SourceAlpha" result="shadowOffsetOuter1"></feOffset>
            <feGaussianBlur stdDeviation="2" in="shadowOffsetOuter1" result="shadowBlurOuter1"></feGaussianBlur>
            <feColorMatrix values="0 0 0 0 0   0 0 0 0 0   0 0 0 0 0  0 0 0 0.5 0" type="matrix" in="shadowBlurOuter1" result="shadowMatrixOuter1"></feColorMatrix>
            <feMerge>
                <feMergeNode in="shadowMatrixOuter1"></feMergeNode>
                <feMergeNode in="SourceGraphic"></feMergeNode>
            </feMerge>
        </filter>
    </defs>
    <g id="Page-1" stroke="none" stroke-width="1" fill="none" fill-rule="evenodd">
        <g id="leftaux" filter="url(#filter-1)" transform="translate(596.000000, 10.500000) scale(-1, 1) translate(-596.000000, -10.500000) translate(4.000000, 2.000000)" fill-rule="nonzero" fill="#FFFFFF">
            <g id="noun_914343_cc" transform="translate(592.000000, 8.500000) scale(-1, 1) rotate(90.000000) translate(-592.000000, -8.500000) translate(583.500000, -583.500000)">
                <g id="Group">
                    <g id="Shape">
                        <g id="Group">
                            <path d="M9.83429023,53.3658469 L9.83429023,36.8918637 C9.83429023,36.0647428 9.10046328,35.3942288 8.19524186,35.3942288 C7.29002044,35.3942288 6.55619349,36.0647428 6.55619349,36.8918637 L6.55619349,53.3658469 C6.55619349,54.1929677 7.29002044,54.8634817 8.19524186,54.8634817 C9.10046328,54.8634817 9.83429023,54.1929677 9.83429023,53.3658469 Z" id="Shape"></path>
                            <path d="M9.83429023,69.3658469 L9.83429023,52.8918637 C9.83429023,52.0647428 9.10046328,51.3942288 8.19524186,51.3942288 C7.29002044,51.3942288 6.55619349,52.0647428 6.55619349,52.8918637 L6.55619349,69.3658469 C6.55619349,70.1929677 7.29002044,70.8634817 8.19524186,70.8634817 C9.10046328,70.8634817 9.83429023,70.1929677 9.83429023,69.3658469 Z" id="Shape"></path>
                            <path d="M9.83429023,87.3658469 L9.83429023,70.8918637 C9.83429023,70.0647428 9.10046328,69.3942288 8.19524186,69.3942288 C7.29002044,69.3942288 6.55619349,70.0647428 6.55619349,70.8918637 L6.55619349,87.3658469 C6.55619349,88.1929677 7.29002044,88.8634817 8.19524186,88.8634817 C9.10046328,88.8634817 9.83429023,88.1929677 9.83429023,87.3658469 Z" id="Shape"></path>
                            <path d="M9.83429023,103.365847 L9.83429023,92.8918637 C9.83429023,92.0647428 9.10046328,91.3942288 8.19524186,91.3942288 C7.29002044,91.3942288 6.55619349,92.0647428 6.55619349,92.8918637 C6.55619349,95.3956329 6.55619349,97.2734598 6.55619349,98.5253444 C6.55619349,100.934345 6.55619349,104.547846 6.55619349,109.365847 C6.55619349,110.192968 7.29002044,110.863482 8.19524186,110.863482 C9.10046328,110.863482 9.83429023,104.192968 9.83429023,103.365847 Z" id="Shape"></path>
                            <path d="M9.83429023,105.365847 L9.83429023,88.8918637 C9.83429023,88.0647428 9.10046328,87.3942288 8.19524186,87.3942288 C7.29002044,87.3942288 6.55619349,88.0647428 6.55619349,88.8918637 L6.55619349,105.365847 C6.55619349,106.192968 7.29002044,106.863482 8.19524186,106.863482 C9.10046328,106.863482 9.83429023,106.192968 9.83429023,105.365847 Z" id="Shape"></path>
                            <path d="M9.83429023,119.365847 L9.83429023,102.891864 C9.83429023,102.064743 9.10046328,101.394229 8.19524186,101.394229 C7.29002044,101.394229 6.55619349,102.064743 6.55619349,102.891864 L6.55619349,119.365847 C6.55619349,120.192968 7.29002044,120.863482 8.19524186,120.863482 C9.10046328,120.863482 9.83429023,120.192968 9.83429023,119.365847 Z" id="Shape"></path>
                            <path d="M9.83429023,129.365847 L9.83429023,112.891864 C9.83429023,112.064743 9.10046328,111.394229 8.19524186,111.394229 C7.29002044,111.394229 6.55619349,112.064743 6.55619349,112.891864 L6.55619349,129.365847 C6.55619349,130.192968 7.29002044,130.863482 8.19524186,130.863482 C9.10046328,130.863482 9.83429023,130.192968 9.83429023,129.365847 Z" id="Shape"></path>
                            <path d="M9.83429023,139.365847 L9.83429023,122.891864 C9.83429023,122.064743 9.10046328,121.394229 8.19524186,121.394229 C7.29002044,121.394229 6.55619349,122.064743 6.55619349,122.891864 L6.55619349,139.365847 C6.55619349,140.192968 7.29002044,140.863482 8.19524186,140.863482 C9.10046328,140.863482 9.83429023,140.192968 9.83429023,139.365847 Z" id="Shape"></path>
                            <path d="M9.83429023,149.365847 L9.83429023,132.891864 C9.83429023,132.064743 9.10046328,131.394229 8.19524186,131.394229 C7.29002044,131.394229 6.55619349,132.064743 6.55619349,132.891864 L6.55619349,149.365847 C6.55619349,150.192968 7.29002044,150.863482 8.19524186,150.863482 C9.10046328,150.863482 9.83429023,150.192968 9.83429023,149.365847 Z" id="Shape"></path>
                            <path d="M9.83429023,159.365847 L9.83429023,142.891864 C9.83429023,142.064743 9.10046328,141.394229 8.19524186,141.394229 C7.29002044,141.394229 6.55619349,142.064743 6.55619349,142.891864 L6.55619349,159.365847 C6.55619349,160.192968 7.29002044,160.863482 8.19524186,160.863482 C9.10046328,160.863482 9.83429023,160.192968 9.83429023,159.365847 Z" id="Shape"></path>
                            <path d="M9.83429023,169.365847 L9.83429023,152.891864 C9.83429023,152.064743 9.10046328,151.394229 8.19524186,151.394229 C7.29002044,151.394229 6.55619349,152.064743 6.55619349,152.891864 L6.55619349,169.365847 C6.55619349,170.192968 7.29002044,170.863482 8.19524186,170.863482 C9.10046328,170.863482 9.83429023,170.192968 9.83429023,169.365847 Z" id="Shape"></path>
                            <path d="M9.83429023,179.365847 L9.83429023,162.891864 C9.83429023,162.064743 9.10046328,161.394229 8.19524186,161.394229 C7.29002044,161.394229 6.55619349,162.064743 6.55619349,162.891864 L6.55619349,179.365847 C6.55619349,180.192968 7.29002044,180.863482 8.19524186,180.863482 C9.10046328,180.863482 9.83429023,180.192968 9.83429023,179.365847 Z" id="Shape"></path>
                            <path d="M9.83429023,189.365847 L9.83429023,172.891864 C9.83429023,172.064743 9.10046328,171.394229 8.19524186,171.394229 C7.29002044,171.394229 6.55619349,172.064743 6.55619349,172.891864 L6.55619349,189.365847 C6.55619349,190.192968 7.29002044,190.863482 8.19524186,190.863482 C9.10046328,190.863482 9.83429023,190.192968 9.83429023,189.365847 Z" id="Shape"></path>
                            <path d="M9.83429023,199.365847 L9.83429023,182.891864 C9.83429023,182.064743 9.10046328,181.394229 8.19524186,181.394229 C7.29002044,181.394229 6.55619349,182.064743 6.55619349,182.891864 L6.55619349,199.365847 C6.55619349,200.192968 7.29002044,200.863482 8.19524186,200.863482 C9.10046328,200.863482 9.83429023,200.192968 9.83429023,199.365847 Z" id="Shape"></path>
                            <path d="M9.83429023,219.365847 L9.83429023,202.891864 C9.83429023,202.064743 9.10046328,201.394229 8.19524186,201.394229 C7.29002044,201.394229 6.55619349,202.064743 6.55619349,202.891864 L6.55619349,219.365847 C6.55619349,220.192968 7.29002044,220.863482 8.19524186,220.863482 C9.10046328,220.863482 9.83429023,220.192968 9.83429023,219.365847 Z" id="Shape"></path>
                            <path d="M9.83429023,209.365847 L9.83429023,192.891864 C9.83429023,192.064743 9.10046328,191.394229 8.19524186,191.394229 C7.29002044,191.394229 6.55619349,192.064743 6.55619349,192.891864 L6.55619349,209.365847 C6.55619349,210.192968 7.29002044,210.863482 8.19524186,210.863482 C9.10046328,210.863482 9.83429023,210.192968 9.83429023,209.365847 Z" id="Shape"></path>
                            <path d="M9.83429023,229.365847 L9.83429023,212.891864 C9.83429023,212.064743 9.10046328,211.394229 8.19524186,211.394229 C7.29002044,211.394229 6.55619349,212.064743 6.55619349,212.891864 L6.55619349,229.365847 C6.55619349,230.192968 7.29002044,230.863482 8.19524186,230.863482 C9.10046328,230.863482 9.83429023,230.192968 9.83429023,229.365847 Z" id="Shape"></path>
                            <path d="M9.83429023,239.365847 L9.83429023,222.891864 C9.83429023,222.064743 9.10046328,221.394229 8.19524186,221.394229 C7.29002044,221.394229 6.55619349,222.064743 6.55619349,222.891864 L6.55619349,239.365847 C6.55619349,240.192968 7.29002044,240.863482 8.19524186,240.863482 C9.10046328,240.863482 9.83429023,240.192968 9.83429023,239.365847 Z" id="Shape"></path>
                            <path d="M9.83429023,256.365847 L9.83429023,239.891864 C9.83429023,239.064743 9.10046328,238.394229 8.19524186,238.394229 C7.29002044,238.394229 6.55619349,239.064743 6.55619349,239.891864 L6.55619349,256.365847 C6.55619349,257.192968 7.29002044,257.863482 8.19524186,257.863482 C9.10046328,257.863482 9.83429023,257.192968 9.83429023,256.365847 Z" id="Shape"></path>
                            <path d="M9.83429023,274.365847 L9.83429023,257.891864 C9.83429023,257.064743 9.10046328,256.394229 8.19524186,256.394229 C7.29002044,256.394229 6.55619349,257.064743 6.55619349,257.891864 L6.55619349,274.365847 C6.55619349,275.192968 7.29002044,275.863482 8.19524186,275.863482 C9.10046328,275.863482 9.83429023,275.192968 9.83429023,274.365847 Z" id="Shape"></path>
                            <path d="M9.83429023,286.365847 L9.83429023,269.891864 C9.83429023,269.064743 9.10046328,268.394229 8.19524186,268.394229 C7.29002044,268.394229 6.55619349,269.064743 6.55619349,269.891864 L6.55619349,286.365847 C6.55619349,287.192968 7.29002044,287.863482 8.19524186,287.863482 C9.10046328,287.863482 9.83429023,287.192968 9.83429023,286.365847 Z" id="Shape"></path>
                            <path d="M9.83429023,296.365847 L9.83429023,279.891864 C9.83429023,279.064743 9.10046328,278.394229 8.19524186,278.394229 C7.29002044,278.394229 6.55619349,279.064743 6.55619349,279.891864 L6.55619349,296.365847 C6.55619349,297.192968 7.29002044,297.863482 8.19524186,297.863482 C9.10046328,297.863482 9.83429023,297.192968 9.83429023,296.365847 Z" id="Shape"></path>
                            <path d="M9.83429023,306.365847 L9.83429023,289.891864 C9.83429023,289.064743 9.10046328,288.394229 8.19524186,288.394229 C7.29002044,288.394229 6.55619349,289.064743 6.55619349,289.891864 L6.55619349,306.365847 C6.55619349,307.192968 7.29002044,307.863482 8.19524186,307.863482 C9.10046328,307.863482 9.83429023,307.192968 9.83429023,306.365847 Z" id="Shape"></path>
                            <path d="M9.83429023,316.365847 L9.83429023,299.891864 C9.83429023,299.064743 9.10046328,298.394229 8.19524186,298.394229 C7.29002044,298.394229 6.55619349,299.064743 6.55619349,299.891864 L6.55619349,316.365847 C6.55619349,317.192968 7.29002044,317.863482 8.19524186,317.863482 C9.10046328,317.863482 9.83429023,317.192968 9.83429023,316.365847 Z" id="Shape"></path>
                            <path d="M9.83429023,326.365847 L9.83429023,309.891864 C9.83429023,309.064743 9.10046328,308.394229 8.19524186,308.394229 C7.29002044,308.394229 6.55619349,309.064743 6.55619349,309.891864 L6.55619349,326.365847 C6.55619349,327.192968 7.29002044,327.863482 8.19524186,327.863482 C9.10046328,327.863482 9.83429023,327.192968 9.83429023,326.365847 Z" id="Shape"></path>
                            <path d="M9.83429023,336.365847 L9.83429023,319.891864 C9.83429023,319.064743 9.10046328,318.394229 8.19524186,318.394229 C7.29002044,318.394229 6.55619349,319.064743 6.55619349,319.891864 L6.55619349,336.365847 C6.55619349,337.192968 7.29002044,337.863482 8.19524186,337.863482 C9.10046328,337.863482 9.83429023,337.192968 9.83429023,336.365847 Z" id="Shape"></path>
                            <path d="M9.83429023,346.365847 L9.83429023,329.891864 C9.83429023,329.064743 9.10046328,328.394229 8.19524186,328.394229 C7.29002044,328.394229 6.55619349,329.064743 6.55619349,329.891864 L6.55619349,346.365847 C6.55619349,347.192968 7.29002044,347.863482 8.19524186,347.863482 C9.10046328,347.863482 9.83429023,347.192968 9.83429023,346.365847 Z" id="Shape"></path>
                            <path d="M9.83429023,356.365847 L9.83429023,339.891864 C9.83429023,339.064743 9.10046328,338.394229 8.19524186,338.394229 C7.29002044,338.394229 6.55619349,339.064743 6.55619349,339.891864 L6.55619349,356.365847 C6.55619349,357.192968 7.29002044,357.863482 8.19524186,357.863482 C9.10046328,357.863482 9.83429023,357.192968 9.83429023,356.365847 Z" id="Shape"></path>
                            <path d="M9.83429023,366.365847 L9.83429023,349.891864 C9.83429023,349.064743 9.10046328,348.394229 8.19524186,348.394229 C7.29002044,348.394229 6.55619349,349.064743 6.55619349,349.891864 L6.55619349,366.365847 C6.55619349,367.192968 7.29002044,367.863482 8.19524186,367.863482 C9.10046328,367.863482 9.83429023,367.192968 9.83429023,366.365847 Z" id="Shape"></path>
                            <path d="M9.83429023,376.365847 L9.83429023,359.891864 C9.83429023,359.064743 9.10046328,358.394229 8.19524186,358.394229 C7.29002044,358.394229 6.55619349,359.064743 6.55619349,359.891864 L6.55619349,376.365847 C6.55619349,377.192968 7.29002044,377.863482 8.19524186,377.863482 C9.10046328,377.863482 9.83429023,377.192968 9.83429023,376.365847 Z" id="Shape"></path>
                            <path d="M9.83429023,386.365847 L9.83429023,369.891864 C9.83429023,369.064743 9.10046328,368.394229 8.19524186,368.394229 C7.29002044,368.394229 6.55619349,369.064743 6.55619349,369.891864 L6.55619349,386.365847 C6.55619349,387.192968 7.29002044,387.863482 8.19524186,387.863482 C9.10046328,387.863482 9.83429023,387.192968 9.83429023,386.365847 Z" id="Shape"></path>
                            <path d="M9.83429023,396.365847 L9.83429023,379.891864 C9.83429023,379.064743 9.10046328,378.394229 8.19524186,378.394229 C7.29002044,378.394229 6.55619349,379.064743 6.55619349,379.891864 L6.55619349,396.365847 C6.55619349,397.192968 7.29002044,397.863482 8.19524186,397.863482 C9.10046328,397.863482 9.83429023,397.192968 9.83429023,396.365847 Z" id="Shape"></path>
                            <path d="M9.83429023,420.365847 L9.83429023,403.891864 C9.83429023,403.064743 9.10046328,402.394229 8.19524186,402.394229 C7.29002044,402.394229 6.55619349,403.064743 6.55619349,403.891864 L6.55619349,420.365847 C6.55619349,421.192968 7.29002044,421.863482 8.19524186,421.863482 C9.10046328,421.863482 9.83429023,421.192968 9.83429023,420.365847 Z" id="Shape"></path>
                            <path d="M9.83429023,451.365847 L9.83429023,434.891864 C9.83429023,434.064743 9.10046328,433.394229 8.19524186,433.394229 C7.29002044,433.394229 6.55619349,434.064743 6.55619349,434.891864 L6.55619349,451.365847 C6.55619349,452.192968 7.29002044,452.863482 8.19524186,452.863482 C9.10046328,452.863482 9.83429023,452.192968 9.83429023,451.365847 Z" id="Shape"></path>
                            <path d="M9.83429023,460.365847 L9.83429023,443.891864 C9.83429023,443.064743 9.10046328,442.394229 8.19524186,442.394229 C7.29002044,442.394229 6.55619349,443.064743 6.55619349,443.891864 L6.55619349,460.365847 C6.55619349,461.192968 7.29002044,461.863482 8.19524186,461.863482 C9.10046328,461.863482 9.83429023,461.192968 9.83429023,460.365847 Z" id="Shape"></path>
                            <path d="M9.83429023,470.365847 L9.83429023,453.891864 C9.83429023,453.064743 9.10046328,452.394229 8.19524186,452.394229 C7.29002044,452.394229 6.55619349,453.064743 6.55619349,453.891864 L6.55619349,470.365847 C6.55619349,471.192968 7.29002044,471.863482 8.19524186,471.863482 C9.10046328,471.863482 9.83429023,471.192968 9.83429023,470.365847 Z" id="Shape"></path>
                            <path d="M9.83429023,480.365847 L9.83429023,463.891864 C9.83429023,463.064743 9.10046328,462.394229 8.19524186,462.394229 C7.29002044,462.394229 6.55619349,463.064743 6.55619349,463.891864 L6.55619349,480.365847 C6.55619349,481.192968 7.29002044,481.863482 8.19524186,481.863482 C9.10046328,481.863482 9.83429023,481.192968 9.83429023,480.365847 Z" id="Shape"></path>
                            <path d="M9.83429023,490.365847 L9.83429023,473.891864 C9.83429023,473.064743 9.10046328,472.394229 8.19524186,472.394229 C7.29002044,472.394229 6.55619349,473.064743 6.55619349,473.891864 L6.55619349,490.365847 C6.55619349,491.192968 7.29002044,491.863482 8.19524186,491.863482 C9.10046328,491.863482 9.83429023,491.192968 9.83429023,490.365847 Z" id="Shape"></path>
                            <path d="M9.83429023,500.365847 L9.83429023,483.891864 C9.83429023,483.064743 9.10046328,482.394229 8.19524186,482.394229 C7.29002044,482.394229 6.55619349,483.064743 6.55619349,483.891864 L6.55619349,500.365847 C6.55619349,501.192968 7.29002044,501.863482 8.19524186,501.863482 C9.10046328,501.863482 9.83429023,501.192968 9.83429023,500.365847 Z" id="Shape"></path>
                            <path d="M9.83429023,518.365847 L9.83429023,501.891864 C9.83429023,501.064743 9.10046328,500.394229 8.19524186,500.394229 C7.29002044,500.394229 6.55619349,501.064743 6.55619349,501.891864 L6.55619349,518.365847 C6.55619349,519.192968 7.29002044,519.863482 8.19524186,519.863482 C9.10046328,519.863482 9.83429023,519.192968 9.83429023,518.365847 Z" id="Shape"></path>
                            <path d="M9.83429023,528.365847 L9.83429023,511.891864 C9.83429023,511.064743 9.10046328,510.394229 8.19524186,510.394229 C7.29002044,510.394229 6.55619349,511.064743 6.55619349,511.891864 L6.55619349,528.365847 C6.55619349,529.192968 7.29002044,529.863482 8.19524186,529.863482 C9.10046328,529.863482 9.83429023,529.192968 9.83429023,528.365847 Z" id="Shape"></path>
                            <path d="M9.83429023,538.365847 L9.83429023,521.891864 C9.83429023,521.064743 9.10046328,520.394229 8.19524186,520.394229 C7.29002044,520.394229 6.55619349,521.064743 6.55619349,521.891864 L6.55619349,538.365847 C6.55619349,539.192968 7.29002044,539.863482 8.19524186,539.863482 C9.10046328,539.863482 9.83429023,539.192968 9.83429023,538.365847 Z" id="Shape"></path>
                            <path d="M9.83429023,556.365847 L9.83429023,539.891864 C9.83429023,539.064743 9.10046328,538.394229 8.19524186,538.394229 C7.29002044,538.394229 6.55619349,539.064743 6.55619349,539.891864 L6.55619349,556.365847 C6.55619349,557.192968 7.29002044,557.863482 8.19524186,557.863482 C9.10046328,557.863482 9.83429023,557.192968 9.83429023,556.365847 Z" id="Shape"></path>
                            <path d="M9.83429023,566.365847 L9.83429023,549.891864 C9.83429023,549.064743 9.10046328,548.394229 8.19524186,548.394229 C7.29002044,548.394229 6.55619349,549.064743 6.55619349,549.891864 L6.55619349,566.365847 C6.55619349,567.192968 7.29002044,567.863482 8.19524186,567.863482 C9.10046328,567.863482 9.83429023,567.192968 9.83429023,566.365847 Z" id="Shape"></path>
                            <path d="M9.83429023,576.365847 L9.83429023,559.891864 C9.83429023,559.064743 9.10046328,558.394229 8.19524186,558.394229 C7.29002044,558.394229 6.55619349,559.064743 6.55619349,559.891864 L6.55619349,576.365847 C6.55619349,577.192968 7.29002044,577.863482 8.19524186,577.863482 C9.10046328,577.863482 9.83429023,577.192968 9.83429023,576.365847 Z" id="Shape"></path>
                            <path d="M9.83429023,566.365847 L9.83429023,549.891864 C9.83429023,549.064743 9.10046328,548.394229 8.19524186,548.394229 C7.29002044,548.394229 6.55619349,549.064743 6.55619349,549.891864 L6.55619349,566.365847 C6.55619349,567.192968 7.29002044,567.863482 8.19524186,567.863482 C9.10046328,567.863482 9.83429023,567.192968 9.83429023,566.365847 Z" id="Shape"></path>
                            <path d="M9.83429023,586.365847 L9.83429023,569.891864 C9.83429023,569.064743 9.10046328,568.394229 8.19524186,568.394229 C7.29002044,568.394229 6.55619349,569.064743 6.55619349,569.891864 L6.55619349,586.365847 C6.55619349,587.192968 7.29002044,587.863482 8.19524186,587.863482 C9.10046328,587.863482 9.83429023,587.192968 9.83429023,586.365847 Z" id="Shape"></path>
                            <path d="M9.83429023,596.365847 L9.83429023,579.891864 C9.83429023,579.064743 9.10046328,578.394229 8.19524186,578.394229 C7.29002044,578.394229 6.55619349,579.064743 6.55619349,579.891864 L6.55619349,596.365847 C6.55619349,597.192968 7.29002044,597.863482 8.19524186,597.863482 C9.10046328,597.863482 9.83429023,597.192968 9.83429023,596.365847 Z" id="Shape"></path>
                            <path d="M9.83429023,606.365847 L9.83429023,589.891864 C9.83429023,589.064743 9.10046328,588.394229 8.19524186,588.394229 C7.29002044,588.394229 6.55619349,589.064743 6.55619349,589.891864 L6.55619349,606.365847 C6.55619349,607.192968 7.29002044,607.863482 8.19524186,607.863482 C9.10046328,607.863482 9.83429023,607.192968 9.83429023,606.365847 Z" id="Shape"></path>
                            <path d="M9.83429023,616.365847 L9.83429023,599.891864 C9.83429023,599.064743 9.10046328,598.394229 8.19524186,598.394229 C7.29002044,598.394229 6.55619349,599.064743 6.55619349,599.891864 L6.55619349,616.365847 C6.55619349,617.192968 7.29002044,617.863482 8.19524186,617.863482 C9.10046328,617.863482 9.83429023,617.192968 9.83429023,616.365847 Z" id="Shape"></path>
                            <path d="M9.83429023,626.365847 L9.83429023,609.891864 C9.83429023,609.064743 9.10046328,608.394229 8.19524186,608.394229 C7.29002044,608.394229 6.55619349,609.064743 6.55619349,609.891864 L6.55619349,626.365847 C6.55619349,627.192968 7.29002044,627.863482 8.19524186,627.863482 C9.10046328,627.863482 9.83429023,627.192968 9.83429023,626.365847 Z" id="Shape"></path>
                            <path d="M9.83429023,636.365847 L9.83429023,619.891864 C9.83429023,619.064743 9.10046328,618.394229 8.19524186,618.394229 C7.29002044,618.394229 6.55619349,619.064743 6.55619349,619.891864 L6.55619349,636.365847 C6.55619349,637.192968 7.29002044,637.863482 8.19524186,637.863482 C9.10046328,637.863482 9.83429023,637.192968 9.83429023,636.365847 Z" id="Shape"></path>
                            <path d="M9.83429023,646.365847 L9.83429023,629.891864 C9.83429023,629.064743 9.10046328,628.394229 8.19524186,628.394229 C7.29002044,628.394229 6.55619349,629.064743 6.55619349,629.891864 L6.55619349,646.365847 C6.55619349,647.192968 7.29002044,647.863482 8.19524186,647.863482 C9.10046328,647.863482 9.83429023,647.192968 9.83429023,646.365847 Z" id="Shape"></path>
                            <path d="M9.83429023,656.365847 L9.83429023,639.891864 C9.83429023,639.064743 9.10046328,638.394229 8.19524186,638.394229 C7.29002044,638.394229 6.55619349,639.064743 6.55619349,639.891864 L6.55619349,656.365847 C6.55619349,657.192968 7.29002044,657.863482 8.19524186,657.863482 C9.10046328,657.863482 9.83429023,657.192968 9.83429023,656.365847 Z" id="Shape"></path>
                            <path d="M9.83429023,666.365847 L9.83429023,649.891864 C9.83429023,649.064743 9.10046328,648.394229 8.19524186,648.394229 C7.29002044,648.394229 6.55619349,649.064743 6.55619349,649.891864 L6.55619349,666.365847 C6.55619349,667.192968 7.29002044,667.863482 8.19524186,667.863482 C9.10046328,667.863482 9.83429023,667.192968 9.83429023,666.365847 Z" id="Shape"></path>
                            <path d="M9.83429023,676.365847 L9.83429023,659.891864 C9.83429023,659.064743 9.10046328,658.394229 8.19524186,658.394229 C7.29002044,658.394229 6.55619349,659.064743 6.55619349,659.891864 L6.55619349,676.365847 C6.55619349,677.192968 7.29002044,677.863482 8.19524186,677.863482 C9.10046328,677.863482 9.83429023,677.192968 9.83429023,676.365847 Z" id="Shape"></path>
                            <path d="M9.83429023,686.365847 L9.83429023,669.891864 C9.83429023,669.064743 9.10046328,668.394229 8.19524186,668.394229 C7.29002044,668.394229 6.55619349,669.064743 6.55619349,669.891864 L6.55619349,686.365847 C6.55619349,687.192968 7.29002044,687.863482 8.19524186,687.863482 C9.10046328,687.863482 9.83429023,687.192968 9.83429023,686.365847 Z" id="Shape"></path>
                            <path d="M9.83429023,696.365847 L9.83429023,679.891864 C9.83429023,679.064743 9.10046328,678.394229 8.19524186,678.394229 C7.29002044,678.394229 6.55619349,679.064743 6.55619349,679.891864 L6.55619349,696.365847 C6.55619349,697.192968 7.29002044,697.863482 8.19524186,697.863482 C9.10046328,697.863482 9.83429023,697.192968 9.83429023,696.365847 Z" id="Shape"></path>
                            <path d="M9.83429023,706.365847 L9.83429023,689.891864 C9.83429023,689.064743 9.10046328,688.394229 8.19524186,688.394229 C7.29002044,688.394229 6.55619349,689.064743 6.55619349,689.891864 L6.55619349,706.365847 C6.55619349,707.192968 7.29002044,707.863482 8.19524186,707.863482 C9.10046328,707.863482 9.83429023,707.192968 9.83429023,706.365847 Z" id="Shape"></path>
                            <path d="M9.83429023,716.365847 L9.83429023,699.891864 C9.83429023,699.064743 9.10046328,698.394229 8.19524186,698.394229 C7.29002044,698.394229 6.55619349,699.064743 6.55619349,699.891864 L6.55619349,716.365847 C6.55619349,717.192968 7.29002044,717.863482 8.19524186,717.863482 C9.10046328,717.863482 9.83429023,717.192968 9.83429023,716.365847 Z" id="Shape"></path>
                            <path d="M9.83429023,726.365847 L9.83429023,709.891864 C9.83429023,709.064743 9.10046328,708.394229 8.19524186,708.394229 C7.29002044,708.394229 6.55619349,709.064743 6.55619349,709.891864 L6.55619349,726.365847 C6.55619349,727.192968 7.29002044,727.863482 8.19524186,727.863482 C9.10046328,727.863482 9.83429023,727.192968 9.83429023,726.365847 Z" id="Shape"></path>
                            <path d="M9.83429023,736.365847 L9.83429023,719.891864 C9.83429023,719.064743 9.10046328,718.394229 8.19524186,718.394229 C7.29002044,718.394229 6.55619349,719.064743 6.55619349,719.891864 L6.55619349,736.365847 C6.55619349,737.192968 7.29002044,737.863482 8.19524186,737.863482 C9.10046328,737.863482 9.83429023,737.192968 9.83429023,736.365847 Z" id="Shape"></path>
                            <path d="M9.83429023,746.365847 L9.83429023,729.891864 C9.83429023,729.064743 9.10046328,728.394229 8.19524186,728.394229 C7.29002044,728.394229 6.55619349,729.064743 6.55619349,729.891864 L6.55619349,746.365847 C6.55619349,747.192968 7.29002044,747.863482 8.19524186,747.863482 C9.10046328,747.863482 9.83429023,747.192968 9.83429023,746.365847 Z" id="Shape"></path>
                            <path d="M9.83429023,756.365847 L9.83429023,739.891864 C9.83429023,739.064743 9.10046328,738.394229 8.19524186,738.394229 C7.29002044,738.394229 6.55619349,739.064743 6.55619349,739.891864 L6.55619349,756.365847 C6.55619349,757.192968 7.29002044,757.863482 8.19524186,757.863482 C9.10046328,757.863482 9.83429023,757.192968 9.83429023,756.365847 Z" id="Shape"></path>
                            <path d="M9.83429023,766.365847 L9.83429023,749.891864 C9.83429023,749.064743 9.10046328,748.394229 8.19524186,748.394229 C7.29002044,748.394229 6.55619349,749.064743 6.55619349,749.891864 L6.55619349,766.365847 C6.55619349,767.192968 7.29002044,767.863482 8.19524186,767.863482 C9.10046328,767.863482 9.83429023,767.192968 9.83429023,766.365847 Z" id="Shape"></path>
                            <path d="M9.83429023,776.365847 L9.83429023,759.891864 C9.83429023,759.064743 9.10046328,758.394229 8.19524186,758.394229 C7.29002044,758.394229 6.55619349,759.064743 6.55619349,759.891864 L6.55619349,776.365847 C6.55619349,777.192968 7.29002044,777.863482 8.19524186,777.863482 C9.10046328,777.863482 9.83429023,777.192968 9.83429023,776.365847 Z" id="Shape"></path>
                            <path d="M9.83429023,786.365847 L9.83429023,769.891864 C9.83429023,769.064743 9.10046328,768.394229 8.19524186,768.394229 C7.29002044,768.394229 6.55619349,769.064743 6.55619349,769.891864 L6.55619349,786.365847 C6.55619349,787.192968 7.29002044,787.863482 8.19524186,787.863482 C9.10046328,787.863482 9.83429023,787.192968 9.83429023,786.365847 Z" id="Shape"></path>
                            <path d="M9.83429023,796.365847 L9.83429023,779.891864 C9.83429023,779.064743 9.10046328,778.394229 8.19524186,778.394229 C7.29002044,778.394229 6.55619349,779.064743 6.55619349,779.891864 L6.55619349,796.365847 C6.55619349,797.192968 7.29002044,797.863482 8.19524186,797.863482 C9.10046328,797.863482 9.83429023,797.192968 9.83429023,796.365847 Z" id="Shape"></path>
                            <path d="M9.83429023,806.365847 L9.83429023,789.891864 C9.83429023,789.064743 9.10046328,788.394229 8.19524186,788.394229 C7.29002044,788.394229 6.55619349,789.064743 6.55619349,789.891864 L6.55619349,806.365847 C6.55619349,807.192968 7.29002044,807.863482 8.19524186,807.863482 C9.10046328,807.863482 9.83429023,807.192968 9.83429023,806.365847 Z" id="Shape"></path>
                            <path d="M10.2780967,819.971618 L10.2780967,803.497635 C10.2780967,802.670514 9.54426979,802 8.63904837,802 C7.73382695,802 7,802.670514 7,803.497635 L7,819.971618 C7,820.798739 7.73382695,821.469253 8.63904837,821.469253 C9.54426979,821.469253 10.2780967,820.798739 10.2780967,819.971618 Z" id="Shape"></path>
                            <path d="M10.2780967,839.971618 L10.2780967,823.497635 C10.2780967,822.670514 9.54426979,822 8.63904837,822 C7.73382695,822 7,822.670514 7,823.497635 L7,839.971618 C7,840.798739 7.73382695,841.469253 8.63904837,841.469253 C9.54426979,841.469253 10.2780967,840.798739 10.2780967,839.971618 Z" id="Shape"></path>
                            <path d="M10.2780967,829.971618 L10.2780967,813.497635 C10.2780967,812.670514 9.54426979,812 8.63904837,812 C7.73382695,812 7,812.670514 7,813.497635 L7,829.971618 C7,830.798739 7.73382695,831.469253 8.63904837,831.469253 C9.54426979,831.469253 10.2780967,830.798739 10.2780967,829.971618 Z" id="Shape"></path>
                            <path d="M10.2780967,849.971618 L10.2780967,833.497635 C10.2780967,832.670514 9.54426979,832 8.63904837,832 C7.73382695,832 7,832.670514 7,833.497635 L7,849.971618 C7,850.798739 7.73382695,851.469253 8.63904837,851.469253 C9.54426979,851.469253 10.2780967,850.798739 10.2780967,849.971618 Z" id="Shape"></path>
                            <path d="M10.2780967,819.971618 L10.2780967,803.497635 C10.2780967,802.670514 9.54426979,802 8.63904837,802 C7.73382695,802 7,802.670514 7,803.497635 L7,819.971618 C7,820.798739 7.73382695,821.469253 8.63904837,821.469253 C9.54426979,821.469253 10.2780967,820.798739 10.2780967,819.971618 Z" id="Shape"></path>
                            <path d="M10.2780967,859.971618 L10.2780967,843.497635 C10.2780967,842.670514 9.54426979,842 8.63904837,842 C7.73382695,842 7,842.670514 7,843.497635 L7,859.971618 C7,860.798739 7.73382695,861.469253 8.63904837,861.469253 C9.54426979,861.469253 10.2780967,860.798739 10.2780967,859.971618 Z" id="Shape"></path>
                            <path d="M10.2780967,869.971618 L10.2780967,853.497635 C10.2780967,852.670514 9.54426979,852 8.63904837,852 C7.73382695,852 7,852.670514 7,853.497635 L7,869.971618 C7,870.798739 7.73382695,871.469253 8.63904837,871.469253 C9.54426979,871.469253 10.2780967,870.798739 10.2780967,869.971618 Z" id="Shape"></path>
                            <path d="M10.2780967,879.971618 L10.2780967,863.497635 C10.2780967,862.670514 9.54426979,862 8.63904837,862 C7.73382695,862 7,862.670514 7,863.497635 L7,879.971618 C7,880.798739 7.73382695,881.469253 8.63904837,881.469253 C9.54426979,881.469253 10.2780967,880.798739 10.2780967,879.971618 Z" id="Shape"></path>
                            <path d="M10.2780967,889.971618 L10.2780967,873.497635 C10.2780967,872.670514 9.54426979,872 8.63904837,872 C7.73382695,872 7,872.670514 7,873.497635 L7,889.971618 C7,890.798739 7.73382695,891.469253 8.63904837,891.469253 C9.54426979,891.469253 10.2780967,890.798739 10.2780967,889.971618 Z" id="Shape"></path>
                            <path d="M10.2780967,907.971618 L10.2780967,891.497635 C10.2780967,890.670514 9.54426979,890 8.63904837,890 C7.73382695,890 7,890.670514 7,891.497635 L7,907.971618 C7,908.798739 7.73382695,909.469253 8.63904837,909.469253 C9.54426979,909.469253 10.2780967,908.798739 10.2780967,907.971618 Z" id="Shape"></path>
                            <path d="M10.2780967,921.971618 L10.2780967,905.497635 C10.2780967,904.670514 9.54426979,904 8.63904837,904 C7.73382695,904 7,904.670514 7,905.497635 L7,921.971618 C7,922.798739 7.73382695,923.469253 8.63904837,923.469253 C9.54426979,923.469253 10.2780967,922.798739 10.2780967,921.971618 Z" id="Shape"></path>
                            <path d="M10.2780967,931.971618 L10.2780967,915.497635 C10.2780967,914.670514 9.54426979,914 8.63904837,914 C7.73382695,914 7,914.670514 7,915.497635 L7,931.971618 C7,932.798739 7.73382695,933.469253 8.63904837,933.469253 C9.54426979,933.469253 10.2780967,932.798739 10.2780967,931.971618 Z" id="Shape"></path>
                            <path d="M10.2780967,941.971618 L10.2780967,925.497635 C10.2780967,924.670514 9.54426979,924 8.63904837,924 C7.73382695,924 7,924.670514 7,925.497635 L7,941.971618 C7,942.798739 7.73382695,943.469253 8.63904837,943.469253 C9.54426979,943.469253 10.2780967,942.798739 10.2780967,941.971618 Z" id="Shape"></path>
                            <path d="M10.2780967,951.971618 L10.2780967,935.497635 C10.2780967,934.670514 9.54426979,934 8.63904837,934 C7.73382695,934 7,934.670514 7,935.497635 L7,951.971618 C7,952.798739 7.73382695,953.469253 8.63904837,953.469253 C9.54426979,953.469253 10.2780967,952.798739 10.2780967,951.971618 Z" id="Shape"></path>
                            <path d="M10.2780967,961.971618 L10.2780967,945.497635 C10.2780967,944.670514 9.54426979,944 8.63904837,944 C7.73382695,944 7,944.670514 7,945.497635 L7,961.971618 C7,962.798739 7.73382695,963.469253 8.63904837,963.469253 C9.54426979,963.469253 10.2780967,962.798739 10.2780967,961.971618 Z" id="Shape"></path>
                            <path d="M10.2780967,971.971618 L10.2780967,955.497635 C10.2780967,954.670514 9.54426979,954 8.63904837,954 C7.73382695,954 7,954.670514 7,955.497635 L7,971.971618 C7,972.798739 7.73382695,973.469253 8.63904837,973.469253 C9.54426979,973.469253 10.2780967,972.798739 10.2780967,971.971618 Z" id="Shape"></path>
                            <path d="M10.2780967,981.971618 L10.2780967,965.497635 C10.2780967,964.670514 9.54426979,964 8.63904837,964 C7.73382695,964 7,964.670514 7,965.497635 L7,981.971618 C7,982.798739 7.73382695,983.469253 8.63904837,983.469253 C9.54426979,983.469253 10.2780967,982.798739 10.2780967,981.971618 Z" id="Shape"></path>
                            <path d="M10.2780967,991.971618 L10.2780967,975.497635 C10.2780967,974.670514 9.54426979,974 8.63904837,974 C7.73382695,974 7,974.670514 7,975.497635 L7,991.971618 C7,992.798739 7.73382695,993.469253 8.63904837,993.469253 C9.54426979,993.469253 10.2780967,992.798739 10.2780967,991.971618 Z" id="Shape"></path>
                            <path d="M10.2780967,1001.97162 L10.2780967,985.497635 C10.2780967,984.670514 9.54426979,984 8.63904837,984 C7.73382695,984 7,984.670514 7,985.497635 L7,1001.97162 C7,1002.79874 7.73382695,1003.46925 8.63904837,1003.46925 C9.54426979,1003.46925 10.2780967,1002.79874 10.2780967,1001.97162 Z" id="Shape"></path>
                            <path d="M10.2780967,1011.97162 L10.2780967,995.497635 C10.2780967,994.670514 9.54426979,994 8.63904837,994 C7.73382695,994 7,994.670514 7,995.497635 L7,1011.97162 C7,1012.79874 7.73382695,1013.46925 8.63904837,1013.46925 C9.54426979,1013.46925 10.2780967,1012.79874 10.2780967,1011.97162 Z" id="Shape"></path>
                            <path d="M10.2780967,1021.97162 L10.2780967,1005.49764 C10.2780967,1004.67051 9.54426979,1004 8.63904837,1004 C7.73382695,1004 7,1004.67051 7,1005.49764 L7,1021.97162 C7,1022.79874 7.73382695,1023.46925 8.63904837,1023.46925 C9.54426979,1023.46925 10.2780967,1022.79874 10.2780967,1021.97162 Z" id="Shape"></path>
                            <path d="M10.2780967,1031.97162 L10.2780967,1015.49764 C10.2780967,1014.67051 9.54426979,1014 8.63904837,1014 C7.73382695,1014 7,1014.67051 7,1015.49764 L7,1031.97162 C7,1032.79874 7.73382695,1033.46925 8.63904837,1033.46925 C9.54426979,1033.46925 10.2780967,1032.79874 10.2780967,1031.97162 Z" id="Shape"></path>
                            <path d="M10.2780967,1041.97162 L10.2780967,1025.49764 C10.2780967,1024.67051 9.54426979,1024 8.63904837,1024 C7.73382695,1024 7,1024.67051 7,1025.49764 L7,1041.97162 C7,1042.79874 7.73382695,1043.46925 8.63904837,1043.46925 C9.54426979,1043.46925 10.2780967,1042.79874 10.2780967,1041.97162 Z" id="Shape"></path>
                            <path d="M10.2780967,1051.97162 L10.2780967,1035.49764 C10.2780967,1034.67051 9.54426979,1034 8.63904837,1034 C7.73382695,1034 7,1034.67051 7,1035.49764 L7,1051.97162 C7,1052.79874 7.73382695,1053.46925 8.63904837,1053.46925 C9.54426979,1053.46925 10.2780967,1052.79874 10.2780967,1051.97162 Z" id="Shape"></path>
                            <path d="M10.2780967,1061.97162 L10.2780967,1045.49764 C10.2780967,1044.67051 9.54426979,1044 8.63904837,1044 C7.73382695,1044 7,1044.67051 7,1045.49764 L7,1061.97162 C7,1062.79874 7.73382695,1063.46925 8.63904837,1063.46925 C9.54426979,1063.46925 10.2780967,1062.79874 10.2780967,1061.97162 Z" id="Shape"></path>
                            <path d="M10.2780967,1071.97162 L10.2780967,1055.49764 C10.2780967,1054.67051 9.54426979,1054 8.63904837,1054 C7.73382695,1054 7,1054.67051 7,1055.49764 L7,1071.97162 C7,1072.79874 7.73382695,1073.46925 8.63904837,1073.46925 C9.54426979,1073.46925 10.2780967,1072.79874 10.2780967,1071.97162 Z" id="Shape"></path>
                            <path d="M10.2780967,1081.97162 L10.2780967,1065.49764 C10.2780967,1064.67051 9.54426979,1064 8.63904837,1064 C7.73382695,1064 7,1064.67051 7,1065.49764 L7,1081.97162 C7,1082.79874 7.73382695,1083.46925 8.63904837,1083.46925 C9.54426979,1083.46925 10.2780967,1082.79874 10.2780967,1081.97162 Z" id="Shape"></path>
                            <path d="M10.2780967,1091.97162 L10.2780967,1075.49764 C10.2780967,1074.67051 9.54426979,1074 8.63904837,1074 C7.73382695,1074 7,1074.67051 7,1075.49764 L7,1091.97162 C7,1092.79874 7.73382695,1093.46925 8.63904837,1093.46925 C9.54426979,1093.46925 10.2780967,1092.79874 10.2780967,1091.97162 Z" id="Shape"></path>
                            <path d="M10.2780967,1101.97162 L10.2780967,1085.49764 C10.2780967,1084.67051 9.54426979,1084 8.63904837,1084 C7.73382695,1084 7,1084.67051 7,1085.49764 L7,1101.97162 C7,1102.79874 7.73382695,1103.46925 8.63904837,1103.46925 C9.54426979,1103.46925 10.2780967,1102.79874 10.2780967,1101.97162 Z" id="Shape"></path>
                            <path d="M10.2780967,1111.97162 L10.2780967,1095.49764 C10.2780967,1094.67051 9.54426979,1094 8.63904837,1094 C7.73382695,1094 7,1094.67051 7,1095.49764 L7,1111.97162 C7,1112.79874 7.73382695,1113.46925 8.63904837,1113.46925 C9.54426979,1113.46925 10.2780967,1112.79874 10.2780967,1111.97162 Z" id="Shape"></path>
                            <path d="M10.2780967,1121.97162 L10.2780967,1105.49764 C10.2780967,1104.67051 9.54426979,1104 8.63904837,1104 C7.73382695,1104 7,1104.67051 7,1105.49764 L7,1121.97162 C7,1122.79874 7.73382695,1123.46925 8.63904837,1123.46925 C9.54426979,1123.46925 10.2780967,1122.79874 10.2780967,1121.97162 Z" id="Shape"></path>
                            <path d="M10.2780967,1131.97162 L10.2780967,1115.49764 C10.2780967,1114.67051 9.54426979,1114 8.63904837,1114 C7.73382695,1114 7,1114.67051 7,1115.49764 L7,1131.97162 C7,1132.79874 7.73382695,1133.46925 8.63904837,1133.46925 C9.54426979,1133.46925 10.2780967,1132.79874 10.2780967,1131.97162 Z" id="Shape"></path>
                            <path d="M10.2780967,1141.97162 L10.2780967,1125.49764 C10.2780967,1124.67051 9.54426979,1124 8.63904837,1124 C7.73382695,1124 7,1124.67051 7,1125.49764 L7,1141.97162 C7,1142.79874 7.73382695,1143.46925 8.63904837,1143.46925 C9.54426979,1143.46925 10.2780967,1142.79874 10.2780967,1141.97162 Z" id="Shape"></path>
                            <path d="M10.2780967,1151.97162 L10.2780967,1135.49764 C10.2780967,1134.67051 9.54426979,1134 8.63904837,1134 C7.73382695,1134 7,1134.67051 7,1135.49764 L7,1151.97162 C7,1152.79874 7.73382695,1153.46925 8.63904837,1153.46925 C9.54426979,1153.46925 10.2780967,1152.79874 10.2780967,1151.97162 Z" id="Shape"></path>
                            <path d="M10.2780967,1161.97162 L10.2780967,1145.49764 C10.2780967,1144.67051 9.54426979,1144 8.63904837,1144 C7.73382695,1144 7,1144.67051 7,1145.49764 L7,1161.97162 C7,1162.79874 7.73382695,1163.46925 8.63904837,1163.46925 C9.54426979,1163.46925 10.2780967,1162.79874 10.2780967,1161.97162 Z" id="Shape"></path>
                            <path d="M10.2780967,1171.97162 L10.2780967,1155.49764 C10.2780967,1154.67051 9.54426979,1154 8.63904837,1154 C7.73382695,1154 7,1154.67051 7,1155.49764 L7,1171.97162 C7,1172.79874 7.73382695,1173.46925 8.63904837,1173.46925 C9.54426979,1173.46925 10.2780967,1172.79874 10.2780967,1171.97162 Z" id="Shape"></path>
                            <path d="M10.2780967,1181.97162 L10.2780967,1165.49764 C10.2780967,1164.67051 9.54426979,1164 8.63904837,1164 C7.73382695,1164 7,1164.67051 7,1165.49764 L7,1181.97162 C7,1182.79874 7.73382695,1183.46925 8.63904837,1183.46925 C9.54426979,1183.46925 10.2780967,1182.79874 10.2780967,1181.97162 Z" id="Shape"></path>
                            <path d="M10.2780967,961.971618 L10.2780967,945.497635 C10.2780967,944.670514 9.54426979,944 8.63904837,944 C7.73382695,944 7,944.670514 7,945.497635 L7,961.971618 C7,962.798739 7.73382695,963.469253 8.63904837,963.469253 C9.54426979,963.469253 10.2780967,962.798739 10.2780967,961.971618 Z" id="Shape"></path>
                            <path d="M9.83429023,406.365847 L9.83429023,389.891864 C9.83429023,389.064743 9.10046328,388.394229 8.19524186,388.394229 C7.29002044,388.394229 6.55619349,389.064743 6.55619349,389.891864 L6.55619349,406.365847 C6.55619349,407.192968 7.29002044,407.863482 8.19524186,407.863482 C9.10046328,407.863482 9.83429023,407.192968 9.83429023,406.365847 Z" id="Shape"></path>
                            <path d="M9.83429023,436.365847 L9.83429023,419.891864 C9.83429023,419.064743 9.10046328,418.394229 8.19524186,418.394229 C7.29002044,418.394229 6.55619349,419.064743 6.55619349,419.891864 L6.55619349,436.365847 C6.55619349,437.192968 7.29002044,437.863482 8.19524186,437.863482 C9.10046328,437.863482 9.83429023,437.192968 9.83429023,436.365847 Z" id="Shape"></path>
                            <path d="M9.83429023,406.365847 L9.83429023,389.891864 C9.83429023,389.064743 9.10046328,388.394229 8.19524186,388.394229 C7.29002044,388.394229 6.55619349,389.064743 6.55619349,389.891864 L6.55619349,406.365847 C6.55619349,407.192968 7.29002044,407.863482 8.19524186,407.863482 C9.10046328,407.863482 9.83429023,407.192968 9.83429023,406.365847 Z" id="Shape"></path>
                            <path d="M13.112387,3.94389724 L13.112387,24.910785 C13.112387,26.5652451 11.644972,27.9060546 9.83429023,27.9060546 L6.55619349,27.9060546 C4.74551176,27.9060546 3.27809674,26.5652451 3.27809674,24.910785 L3.27809674,3.94389724 L13.112387,3.94389724 Z M9.83429023,30.9013243 C13.4554148,30.9013243 16.3904837,28.2194867 16.3904837,24.910785 L16.3904837,2.44626241 C16.3904837,1.6191416 15.6566568,0.948627569 14.7514353,0.948627569 L1.63904837,0.948627569 C0.733826952,0.948627569 0,1.6191416 0,2.44626241 L0,24.910785 C0,28.2194867 2.93506892,30.9013243 6.55619349,30.9013243 L9.83429023,30.9013243 Z" id="Shape"></path>
                            <path d="M9.83429023,27.9060546 L6.55619349,27.9060546 C6.21080346,27.9060546 5.85424865,27.8434869 5.46779379,27.717536 C4.40048253,27.3696847 3.27809674,28.0927183 3.27809674,29.1281247 L3.27809674,34.6379232 C3.27809674,36.7099641 5.11706409,38.3894985 7.38555196,38.3894985 L9.00493176,38.3894985 C11.2734196,38.3894985 13.112387,36.7099641 13.112387,34.6379232 L13.112387,29.1281247 C13.112387,28.0927183 11.9900012,27.3696847 10.9226899,27.717536 C10.5362351,27.8434869 10.1796803,27.9060546 9.83429023,27.9060546 Z M9.83429023,30.9013243 L9.83429023,34.6379232 C9.83429023,35.0554145 9.4633134,35.3942288 9.00493176,35.3942288 L7.38555196,35.3942288 C6.92717032,35.3942288 6.55619349,35.0554145 6.55619349,34.6379232 L6.55619349,30.9013243 L9.83429023,30.9013243 Z" id="Shape"></path>
                        </g>
                    </g>
                </g>
            </g>
        </g>
    </g>
</svg>